<svg id="Capa_1" enable-background="new 0 0 512 512" height="512" viewBox="0 0 512 512" width="512" xmlns="http://www.w3.org/2000/svg"><g><path d="m494.5 213.863h-29.602v-9.853c0-9.649-7.851-17.5-17.5-17.5h-21.862c-9.649 0-17.5 7.851-17.5 17.5v9.853h-22.839l-16.905-18.033c-4.059-4.33-6.294-9.982-6.294-15.917v-12.403h64.469c9.649 0 17.5-7.851 17.5-17.5v-70.69c0-4.142-3.358-7.5-7.5-7.5s-7.5 3.358-7.5 7.5v40.791h-102.499v-7.59c0-26.191-21.309-47.5-47.5-47.5h-36.693v-47.521c0-1.378 1.122-2.5 2.5-2.5h181.692c1.378 0 2.5 1.122 2.5 2.5v27.26c0 4.142 3.358 7.5 7.5 7.5s7.5-3.358 7.5-7.5v-27.26c0-9.649-7.851-17.5-17.5-17.5h-181.692c-9.649 0-17.5 7.851-17.5 17.5v47.52h-67.561c-26.191 0-47.5 21.309-47.5 47.5v23.28c0 4.142 3.358 7.5 7.5 7.5s7.5-3.358 7.5-7.5v-23.28c0-17.92 14.58-32.5 32.5-32.5h119.253c17.92 0 32.5 14.58 32.5 32.5v171.706c0 6.893-5.607 12.5-12.5 12.5h-53.827v-34.34c0-9.649-7.851-17.5-17.5-17.5h-16.598c-9.649 0-17.5 7.851-17.5 17.5v34.34h-53.828c-6.893 0-12.5-5.607-12.5-12.5v-112.426c0-4.142-3.358-7.5-7.5-7.5s-7.5 3.358-7.5 7.5v42.063h-16.914v-52.352c0-5.238-4.262-9.5-9.5-9.5h-1.67v-24.401c0-13.068-10.632-23.7-23.7-23.7s-23.7 10.632-23.7 23.7v24.401h-1.67c-5.238 0-9.5 4.262-9.5 9.5v52.352h-8.06c-9.649 0-17.5 7.851-17.5 17.5v22.386c0 9.649 7.851 17.5 17.5 17.5h8.06v228.251c0 6.893 5.607 12.5 12.5 12.5h28.86c6.893 0 12.5-5.607 12.5-12.5v-106.6h32.794v8.766c0 6.893 5.607 12.5 12.5 12.5h68.828v5.319l-63.54 71.727c-3.305 3.731-4.087 8.874-2.042 13.419s6.415 7.369 11.399 7.369h24.74c3.612 0 7.046-1.562 9.42-4.284l20.023-22.957v9.74c0 9.649 7.851 17.5 17.5 17.5h16.598c9.649 0 17.5-7.851 17.5-17.5v-9.74l20.024 22.958c2.375 2.721 5.808 4.282 9.419 4.282h24.74c4.985 0 9.353-2.824 11.398-7.369s1.264-9.688-2.042-13.419l-63.54-71.727v-5.318h68.828c6.893 0 12.5-5.607 12.5-12.5v-8.766h106.113v106.6c0 6.893 5.607 12.5 12.5 12.5h28.86c6.893 0 12.5-5.607 12.5-12.5v-149.522c0-4.142-3.358-7.5-7.5-7.5s-7.5 3.358-7.5 7.5v147.022h-23.86v-225.751h23.86v42.729c0 4.142 3.358 7.5 7.5 7.5s7.5-3.358 7.5-7.5v-42.729h8.06c9.649 0 17.5-7.851 17.5-17.5v-22.386c0-9.649-7.851-17.5-17.5-17.5zm-71.464-9.853c0-1.378 1.122-2.5 2.5-2.5h21.862c1.378 0 2.5 1.122 2.5 2.5v9.853h-26.862zm-65.688 2.079 7.288 7.774h-38.168v-46.353h20.53v12.404c0 9.76 3.675 19.056 10.35 26.175zm71.619-70.979v14.9c0 1.378-1.122 2.5-2.5 2.5h-99.999v-17.4zm-220.425 127.276c0-1.378 1.122-2.5 2.5-2.5h16.598c1.378 0 2.5 1.122 2.5 2.5v78.092h-21.598zm-167.982-95.374h39.74v13.861h-39.74zm11.17-39.402c0-4.797 3.903-8.7 8.7-8.7s8.7 3.903 8.7 8.7v24.401h-17.4zm-11.17 68.263h39.74v17.99h-39.74zm-25.56 57.876v-22.386c0-1.378 1.122-2.5 2.5-2.5h94.714v27.386h-94.714c-1.378 0-2.5-1.122-2.5-2.5zm49.42 243.251h-23.86v-225.751h23.86zm15-119.1v-106.651h32.794v12.977c0 15.164 12.336 27.5 27.5 27.5h53.828v28.751h-46.762c-6.685 0-13.132 2.431-18.154 6.844l-12.163 10.689c-2.7 2.373-4.248 5.795-4.248 9.389v10.5h-32.795zm83.542 119.1h-18.048l48.628-54.894v19.833zm130.806 0h-18.048l-30.58-35.061v-19.833zm-63.628-2.5c0 1.378-1.122 2.5-2.5 2.5h-16.598c-1.378 0-2.5-1.122-2.5-2.5v-80.334h21.598zm81.328-95.334h-73.818c-.003 0-.006 0-.01 0s-.006 0-.01 0h-36.578c-.003 0-.006 0-.01 0s-.006 0-.01 0h-73.818v-30.635l11.313-9.942c2.283-2.006 5.213-3.111 8.252-3.111h145.123c3.039 0 5.969 1.105 8.251 3.111l11.313 9.942v30.635zm121.112-21.266h-106.112v-10.5c0-3.594-1.548-7.016-4.248-9.389l-12.163-10.689c-5.021-4.414-11.469-6.844-18.154-6.844h-46.763v-28.751h53.828c15.164 0 27.5-12.336 27.5-27.5v-12.977h106.112zm61.92-149.037c1.378 0 2.5 1.122 2.5 2.5v22.386c0 1.378-1.122 2.5-2.5 2.5h-168.032v-27.386z"/></g></svg>